<svg width="158" height="158" viewBox="0 0 158 158" fill="none" xmlns="http://www.w3.org/2000/svg">
    <rect width="158" height="158" rx="30" fill="#E3E2E0" />
    <path
        d="M92.0156 75.0938L99.3125 69.625C105.797 64.7656 108.688 58.9844 108.688 50.875V41.5H99.3125V47.75H58.6875V41.5H49.3125V50.875C49.3125 58.9844 52.2031 64.7656 58.6875 69.625L87.8594 91.5H70.1563L73.7969 88.7656L65.9844 82.9062L58.6875 88.375C52.2031 93.2344 49.3125 99.0156 49.3125 107.125V116.5H58.6875V110.25H99.3125V116.5H108.688V107.125C108.688 99.0156 105.797 93.2344 99.3125 88.375L70.1406 66.5H87.8437L84.2031 69.2344L92.0156 75.0938ZM58.9375 54H99.0625C98.6406 56.4844 97.625 58.4375 95.8281 60.25H62.1562C60.3594 58.4375 59.3437 56.4844 58.9219 54H58.9375ZM99.0625 104H58.9375C59.3594 101.516 60.375 99.5625 62.1719 97.75H95.8437C97.6406 99.5625 98.6562 101.516 99.0781 104H99.0625Z"
        fill="#55534E" />
</svg>