<svg width="158" height="158" viewBox="0 0 158 158" fill="none" xmlns="http://www.w3.org/2000/svg">
<rect width="158" height="158" rx="30" fill="#E3E2E0"/>
<path d="M116.5 49.3125V58.6875H63.375V49.3125H116.5ZM63.375 83.6875H116.5V74.3125H63.375V83.6875ZM63.375 108.688H116.5V99.3125H63.375V108.688ZM47.75 47.75C44.2969 47.75 41.5 50.5469 41.5 54C41.5 57.4531 44.2969 60.25 47.75 60.25C51.2031 60.25 54 57.4531 54 54C54 50.5469 51.2031 47.75 47.75 47.75ZM47.75 72.75C44.2969 72.75 41.5 75.5469 41.5 79C41.5 82.4531 44.2969 85.25 47.75 85.25C51.2031 85.25 54 82.4531 54 79C54 75.5469 51.2031 72.75 47.75 72.75ZM47.75 97.75C44.2969 97.75 41.5 100.547 41.5 104C41.5 107.453 44.2969 110.25 47.75 110.25C51.2031 110.25 54 107.453 54 104C54 100.547 51.2031 97.75 47.75 97.75Z" fill="#55534E"/>
</svg>
