<svg width="158" height="158" viewBox="0 0 158 158" fill="none" xmlns="http://www.w3.org/2000/svg">
<rect width="158" height="158" rx="30" fill="#2F2F2F"/>
<path d="M110.25 44.625H54V79C54 86.7188 58.7812 91.5 66.5 91.5H91.5C99.2188 91.5 104 86.7188 104 79H110.25C117.969 79 122.75 74.2188 122.75 66.5V57.125C122.75 49.4062 117.969 44.625 110.25 44.625ZM113.375 66.5C113.375 69.0469 112.797 69.625 110.25 69.625H104V54H110.25C112.797 54 113.375 54.5781 113.375 57.125V66.5ZM35.25 97.75H122.75V107.125H111.031L109.469 116.5H48.5312L46.9688 107.125H35.25V97.75Z" fill="#A6A299"/>
</svg>
