<svg width="158" height="158" viewBox="0 0 158 158" fill="none" xmlns="http://www.w3.org/2000/svg">
    <rect width="158" height="158" rx="30" fill="#2F2F2F" />
    <path
        d="M41.5 86.8126H71.1875V116.5H61.8125V102.813L45.0937 119.531L38.4688 112.906L55.1875 96.1876H41.5V86.8126ZM116.5 61.8126H102.812L119.531 45.0938L112.906 38.4688L96.1875 55.1876V41.5001H86.8125V71.1876H116.5V61.8126ZM116.5 96.1876V86.8126H86.8125V116.5H96.1875V102.813L112.906 119.531L119.531 112.906L102.812 96.1876H116.5ZM61.8125 55.1876L45.0937 38.4688L38.4688 45.0938L55.1875 61.8126H41.5V71.1876H71.1875V41.5001H61.8125V55.1876Z"
        fill="#A6A299" />
</svg>