<svg width="158" height="158" viewBox="0 0 158 158" fill="none" xmlns="http://www.w3.org/2000/svg">
<rect width="158" height="158" rx="30" fill="#2F2F2F"/>
<path d="M68.4375 72.75L88.75 93.0625L68.4375 113.375L61.8125 106.75L70.8125 97.75H58.6875C45.4062 97.75 36.8125 89.1562 36.8125 75.875C36.8125 62.5938 45.4062 54 58.6875 54H72.75V63.375H58.6875C50.625 63.375 46.1875 67.8125 46.1875 75.875C46.1875 83.9375 50.625 88.375 58.6875 88.375H70.8125L61.8125 79.375L68.4375 72.75ZM107.125 44.625H79V72.75H107.125V44.625ZM91.5 79V107.125H119.625V79H91.5Z" fill="#A6A299"/>
</svg>
