<svg width="158" height="158" viewBox="0 0 158 158" fill="none" xmlns="http://www.w3.org/2000/svg">
<rect width="158" height="158" rx="30" fill="#2F2F2F"/>
<path d="M110.25 54V60.25C110.25 67.1563 96.2656 72.75 79 72.75C61.7344 72.75 47.75 67.1563 47.75 60.25V54C47.75 47.0937 61.7344 41.5 79 41.5C96.2656 41.5 110.25 47.0937 110.25 54ZM79 100.875C65.0781 100.875 55.2813 98.0313 49.1875 93.9844C48.25 95.1719 47.75 96.4375 47.75 97.75V104C47.75 110.906 61.7344 116.5 79 116.5C96.2656 116.5 110.25 110.906 110.25 104V97.75C110.25 96.4375 109.734 95.1719 108.813 93.9844C102.719 98.0156 92.9219 100.875 79 100.875ZM79 79C65.0781 79 55.2813 76.1563 49.1875 72.1094C48.25 73.2969 47.75 74.5625 47.75 75.875V82.125C47.75 89.0313 61.7344 94.625 79 94.625C96.2656 94.625 110.25 89.0313 110.25 82.125V75.875C110.25 74.5625 109.734 73.2969 108.813 72.1094C102.719 76.1406 92.9219 79 79 79Z" fill="#A6A299"/>
</svg>
